<svg width="30" height="30" viewBox="0 0 30 30" fill="none" xmlns="http://www.w3.org/2000/svg">
<path d="M29.2935 20.895C29.0535 20.49 28.3785 19.86 26.6985 20.16C25.7685 20.325 24.8235 20.4 23.8785 20.355C22.1931 20.2786 20.5401 19.8648 19.0174 19.1383C17.4947 18.4117 16.1332 17.3871 15.0135 16.125C13.0635 13.95 11.8635 11.115 11.8485 8.05499C11.8485 6.34499 12.1785 4.69499 12.8535 3.13499C13.5135 1.61999 13.0485 0.824992 12.7185 0.494992C12.3735 0.149992 11.5635 -0.330008 9.97349 0.329992C3.83849 2.90999 0.0434942 9.05999 0.493494 15.645C0.943494 21.84 5.29349 27.135 11.0535 29.13C12.4499 29.6172 13.9107 29.8952 15.3885 29.955C15.6285 29.97 15.8685 29.985 16.1085 29.985C21.1335 29.985 25.8435 27.615 28.8135 23.58C29.8185 22.185 29.5485 21.3 29.2935 20.895Z" fill="#18AEFF"/>
</svg>
