<svg width="382" height="346" viewBox="0 0 382 346" fill="none" xmlns="http://www.w3.org/2000/svg">
<path d="M78.2849 4.74907L21.7141 13.6429C19.1244 14.0513 17.2412 16.0296 17.2505 18.3382L17.4307 92.235C17.44 95.1941 20.4882 97.4289 23.8055 96.9077L80.2407 88.0753C82.8257 87.669 84.7112 85.6949 84.7089 83.3863L84.6644 9.42995C84.6597 6.46874 81.6068 4.22783 78.2849 4.74907Z" fill="white"/>
<path d="M17.4166 85.0177C17.6833 85.0177 17.8985 84.8268 17.8939 84.5929L17.7324 18.3362C17.7278 16.2307 19.4379 14.4351 21.803 14.0616L78.3738 5.16771C79.8102 4.94198 81.2863 5.28263 82.4116 6.10963C83.5345 6.93458 84.1825 8.14533 84.1825 9.43201L84.2012 40.696C84.2012 40.93 84.4164 41.1188 84.6831 41.1188C84.9521 41.1188 85.1697 40.93 85.1697 40.696L85.1487 9.43201C85.1463 7.89498 84.3743 6.44618 83.0292 5.45911C81.6864 4.47204 79.9272 4.06367 78.2007 4.33455L21.6299 13.2264C18.8086 13.6717 16.7616 15.8223 16.7686 18.3403L16.93 84.595C16.93 84.8289 17.1453 85.0177 17.4166 85.0177Z" fill="#4F1894"/>
<path d="M44.7195 23.567C44.7499 23.567 44.778 23.5629 44.8084 23.5588L74.8531 18.724C75.1151 18.6829 75.2882 18.4613 75.2414 18.2294C75.1946 18.0016 74.9443 17.8477 74.6799 17.8908L44.633 22.7256C44.3733 22.7687 44.1978 22.9883 44.247 23.2181C44.2891 23.4213 44.4926 23.567 44.7195 23.567Z" fill="#4F1894"/>
<path d="M27.5836 34.3324C27.614 34.3324 27.6421 34.3304 27.6725 34.3262L74.8531 26.7314C75.1174 26.6883 75.2929 26.4707 75.2437 26.2388C75.1946 26.009 74.9443 25.8551 74.68 25.9002L27.497 33.4931C27.235 33.5341 27.0619 33.7537 27.1087 33.9835C27.1531 34.1888 27.3567 34.3324 27.5836 34.3324Z" fill="#4F1894"/>
<path d="M27.5859 42.3377C27.6116 42.3377 27.6421 42.3357 27.6725 42.3316L74.8554 34.7367C75.1174 34.6956 75.2905 34.4761 75.2437 34.2462C75.1946 34.0164 74.9466 33.8604 74.6799 33.9056L27.4994 41.4984C27.2327 41.5415 27.0619 41.759 27.111 41.9909C27.1531 42.1961 27.3543 42.3377 27.5859 42.3377Z" fill="#4F1894"/>
<path d="M39.6969 48.3955C39.7273 48.3955 39.7577 48.3914 39.7858 48.3873L74.8554 42.7461C75.1174 42.703 75.2905 42.4813 75.2437 42.2515C75.1969 42.0217 74.9466 41.8678 74.6799 41.9129L39.6103 47.5562C39.3483 47.5973 39.1752 47.8169 39.222 48.0467C39.2664 48.2498 39.47 48.3955 39.6969 48.3955Z" fill="#4F1894"/>
<path d="M106.383 207.872L172.843 199.159C173.275 199.159 173.416 199.509 173.416 199.846V249.477C173.416 254.227 211.178 266.575 211.545 265.945L211.592 271.198C211.594 272.177 210.666 272.84 209.365 273.043L152.796 282.126C150.207 282.126 147.657 281.617 145.315 280.757L114.676 269.433C109.162 267.396 105.681 263.018 105.681 258.243V208.563C105.681 208.225 105.953 207.872 106.383 207.872Z" fill="#4F1894"/>
<path d="M180.144 196.265V245.908C180.144 250.8 183.735 255.259 189.373 257.371L210.039 265.114C211.389 265.618 211.068 266.987 209.433 267.209L152.644 276.289C150.092 276.289 147.57 275.848 145.261 274.995L122.361 266.532C116.683 264.432 113.057 259.957 113.057 255.038V205.348C113.057 205.145 113.27 204.978 113.528 204.978L179.676 195.898C179.936 195.898 180.144 196.062 180.144 196.265Z" fill="white"/>
<mask id="mask0_1_418" style="mask-type:luminance" maskUnits="userSpaceOnUse" x="0" y="50" width="286" height="167">
<path d="M0.399994 50.5975H285.329V216.08H0.399994V50.5975Z" fill="white"/>
</mask>
<g mask="url(#mask0_1_418)">
<path d="M3.06455 247.652L10.478 253.726L278.957 212.949C282.662 212.387 285.35 209.538 285.287 206.236L282.449 55.7709L273.553 51.5784C271.922 50.815 270.041 50.5565 268.221 50.8458L7.28245 92.1632C3.36867 92.785 0.519303 95.777 0.519303 99.2697L0.463158 242.384C0.463158 244.381 1.40359 246.288 3.06455 247.652Z" fill="#4F1894"/>
</g>
<path d="M16.4552 254.519L279.61 212.813C282.882 212.294 285.261 209.795 285.261 206.879V61.6646C285.261 57.9051 281.383 55.0588 277.17 55.7298L14.0105 97.433C10.7377 97.9522 8.36091 100.452 8.36091 103.37V248.584C8.36091 252.343 12.2349 255.188 16.4552 254.519Z" fill="white"/>
<path d="M15.6223 255.108C16.0575 255.108 16.4973 255.075 16.9347 255.005L269.929 214.911C270.191 214.87 270.364 214.65 270.317 214.418C270.271 214.188 270.018 214.036 269.756 214.075L16.7616 254.172C14.8948 254.469 12.9859 254.024 11.5308 252.957C10.0757 251.888 9.23817 250.318 9.23817 248.654V103.442C9.23817 100.727 11.4465 98.4057 14.4924 97.9214L34.0917 94.8165C34.3514 94.7755 34.5268 94.5539 34.4801 94.324C34.4333 94.0921 34.1876 93.9382 33.9186 93.9793L14.3216 97.0882C10.8149 97.6423 8.272 100.314 8.272 103.442V248.654C8.272 250.57 9.23349 252.376 10.9108 253.605C12.2489 254.586 13.9122 255.108 15.6223 255.108Z" fill="#4F1894"/>
<path d="M285.654 87.8866C285.921 87.8866 286.139 87.6978 286.139 87.4618V61.7344C286.139 59.8156 285.177 58.0118 283.5 56.7826C281.823 55.5513 279.628 55.0424 277.476 55.383L195.247 68.414C194.982 68.4571 194.807 68.6767 194.854 68.9065C194.901 69.1363 195.151 69.2903 195.415 69.2492L277.649 56.2162C279.516 55.9187 281.423 56.3619 282.88 57.4311C284.337 58.4982 285.173 60.068 285.173 61.7344V87.4618C285.173 87.6978 285.39 87.8866 285.654 87.8866Z" fill="#4F1894"/>
<path d="M106.697 226.259C114.288 229.083 123.084 226.509 127.227 220.254L151.337 183.866C164.098 170.037 172.291 153.398 175.004 135.758L184.586 73.6018C186.556 60.8212 177.021 48.8532 162.666 46.089L122.347 38.3258C113.642 36.6493 104.537 37.938 96.8736 41.9335L45.5172 68.7013C35.7082 73.8111 30.3721 83.5997 31.9886 93.5073L40.6794 146.752C44.4575 169.922 57.6446 191.112 77.8124 206.423L97.0795 221.01C99.9546 223.187 103.199 224.958 106.697 226.259Z" fill="#4F1894"/>
<path d="M128.916 217.8L158.453 185.803C171.219 171.974 179.407 155.334 182.125 137.696L190.856 81.0509C193.305 65.1552 181.447 50.2733 163.597 46.836L129.447 40.2589C120.756 38.5844 111.661 39.8731 104.006 43.8604L56.5778 68.5802C44.385 74.9377 37.7482 87.1108 39.76 99.4318L47.7958 148.691C51.5762 171.859 64.7656 193.047 84.9311 208.36L100.301 220.025C108.842 226.511 121.807 225.504 128.916 217.8Z" fill="white"/>
<path d="M113.338 224.728C113.949 224.728 114.566 224.705 115.189 224.656C120.761 224.223 125.77 221.882 129.293 218.067L158.827 186.07C163.055 181.492 166.823 176.552 170.038 171.385C170.162 171.18 170.075 170.921 169.844 170.811C169.61 170.7 169.315 170.776 169.188 170.979C166.005 176.103 162.264 181.001 158.081 185.537L128.542 217.533C125.187 221.168 120.412 223.398 115.102 223.811C109.796 224.223 104.65 222.766 100.614 219.704L85.2492 208.04C65.1704 192.795 52.0371 171.699 48.2754 148.631L40.2373 99.3702C38.2464 87.1786 44.7569 75.2352 56.8258 68.9455L104.257 44.2257C111.829 40.2774 120.74 39.0154 129.344 40.6735L163.494 47.2485C180.965 50.6139 192.776 65.4364 190.376 80.9935C190.339 81.2254 190.526 81.4388 190.788 81.4716C191.052 81.5004 191.296 81.3403 191.333 81.1084C192.533 73.3145 190.367 65.4733 185.232 59.0276C180.099 52.584 172.452 48.1062 163.7 46.4214L129.552 39.8465C120.707 38.1411 111.551 39.4401 103.763 43.4951L56.3345 68.217C43.9311 74.6812 37.2358 86.9569 39.2805 99.4933L47.3162 148.75C51.113 172.021 64.3609 193.302 84.6153 208.68L99.9826 220.345C103.744 223.199 108.428 224.728 113.338 224.728Z" fill="#4F1894"/>
<path d="M103.627 210.098C110.344 215.196 120.532 214.404 126.121 208.35L152.979 179.251C164.105 167.201 171.245 152.694 173.612 137.32L182.584 79.3579C184.324 68.098 175.926 57.5521 163.284 55.1183L126.151 47.9687C119.994 46.7826 113.553 47.6937 108.135 50.5175L61.2823 74.9377C52.7857 79.3682 48.0835 87.7962 49.3164 96.4028L56.524 146.903C59.8202 167.096 71.3159 185.569 88.8963 198.914L103.627 210.098Z" fill="white"/>
<path d="M120.801 47.8805C122.548 47.8805 124.305 48.0446 126.046 48.3812L163.181 55.5308C175.486 57.901 183.798 68.3421 182.104 79.2984L173.135 137.265C170.779 152.563 163.677 166.99 152.605 178.984L125.744 208.083C123.126 210.921 119.402 212.659 115.254 212.984C111.106 213.304 107.092 212.167 103.946 209.778C103.946 209.776 103.946 209.776 103.946 209.776L89.2122 198.592C71.7206 185.313 60.2834 166.936 57.0036 146.844L49.7936 96.3515C48.5842 87.9091 53.1951 79.6473 61.5326 75.3009L108.381 50.8807C112.183 48.9004 116.461 47.8805 120.801 47.8805ZM113.876 213.885C114.36 213.885 114.849 213.864 115.338 213.827C119.748 213.484 123.709 211.633 126.495 208.617L153.356 179.518C164.54 167.402 171.71 152.83 174.092 137.375L183.061 79.4133C183.922 73.8644 182.38 68.2785 178.724 63.6859C175.067 59.0953 169.621 55.9042 163.389 54.7058L126.252 47.5521C119.956 46.3414 113.434 47.2628 107.89 50.1522L61.0367 74.5724C52.3716 79.0891 47.5829 87.6792 48.8345 96.4562L56.0468 146.955C59.357 167.258 70.9135 185.822 88.5782 199.234L103.312 210.416C106.29 212.678 109.991 213.885 113.876 213.885Z" fill="#4F1894"/>
<path d="M81.415 99.0583L140.657 89.7355L150.558 93.2795C150.558 93.2795 106.318 145.237 105.653 145.011C105.511 144.962 100.493 142.9 100.357 142.842C88.0542 137.4 80.657 129.005 80.657 117.248V99.8525C80.657 99.4605 80.9775 99.126 81.415 99.0583Z" fill="#4F1894"/>
<path d="M88.8636 103.411L149.851 93.8151C150.417 93.7248 150.934 94.1065 150.934 94.6093V119.577C150.934 132.931 140.035 144.363 125.063 146.719C105.801 149.748 88.1033 136.752 88.1033 119.577V104.203C88.1033 103.813 88.4215 103.479 88.8636 103.411Z" fill="white"/>
<path d="M150.017 94.2235C150.151 94.2235 150.244 94.2789 150.293 94.3117C150.354 94.3569 150.45 94.4533 150.45 94.6052V119.575C150.45 132.738 139.738 143.977 124.974 146.298C115.935 147.722 106.713 145.572 99.6692 140.398C92.6253 135.227 88.5852 127.636 88.5852 119.575V104.203C88.5852 104.018 88.7373 103.86 88.9455 103.825L149.935 94.2296C149.963 94.2255 149.992 94.2235 150.017 94.2235ZM119.491 147.576C121.369 147.576 123.262 147.431 125.145 147.133C140.367 144.738 151.416 133.15 151.416 119.575V94.6052C151.416 94.2419 151.234 93.8972 150.913 93.6653C150.595 93.4293 150.176 93.3328 149.765 93.3965L88.7747 102.992C88.1033 103.095 87.619 103.606 87.619 104.203V119.575C87.619 127.891 91.7855 135.715 99.0493 141.049C104.842 145.303 112.068 147.576 119.491 147.576Z" fill="#4F1894"/>
<path d="M113.474 116.879C113.474 112.968 116.981 109.797 121.435 109.797C125.894 109.797 129.209 112.968 129.209 116.879C129.209 119.752 127.725 122.221 124.158 123.331V132.169L119.002 133.123V123.528C115.83 122.539 113.474 119.939 113.474 116.879Z" fill="#4F1894"/>
<path d="M130.764 93.6222C129.019 93.1338 128.06 91.4962 128.617 89.9674C129.658 87.1252 131.12 83.1154 131.129 83.0928C133.679 76.1012 129.279 68.6377 121.311 66.3988C113.343 64.16 104.83 67.981 102.278 74.9746C102.268 75.0013 102.621 74.0388 101.049 78.3503C100.49 79.8792 98.6282 80.7205 96.883 80.2321C95.1425 79.7437 94.181 78.1061 94.7378 76.5773C96.3075 72.2699 95.9543 73.2406 95.9613 73.2118C99.6294 63.1585 111.878 57.6404 123.332 60.856C134.786 64.0758 141.111 74.8022 137.443 84.8556C137.434 84.8781 135.967 88.8982 134.931 91.7425C134.372 93.2734 132.505 94.1127 130.764 93.6222Z" fill="white"/>
<path d="M116.702 60.3676C118.85 60.3676 121.032 60.657 123.185 61.2623C134.367 64.4041 140.557 74.9315 136.985 84.7263C136.978 84.7386 136.447 86.1997 135.796 87.9789L134.47 91.6132C133.995 92.9183 132.397 93.6366 130.909 93.22C130.191 93.0168 129.602 92.5838 129.255 91.9928C128.911 91.4018 128.848 90.7287 129.08 90.0967L129.859 87.9542C130.72 85.5964 131.571 83.2652 131.588 83.2241C134.21 76.0294 129.667 68.3011 121.461 65.9966C113.252 63.69 104.439 67.6588 101.819 74.8474C101.819 74.8494 101.819 74.8515 101.819 74.8535C101.74 75.071 101.459 75.8447 100.591 78.2211C100.362 78.8531 99.8634 79.3682 99.192 79.674C98.5206 79.9756 97.7532 80.031 97.0327 79.8299C95.5449 79.4113 94.7237 78.0117 95.1986 76.7066L96.2373 73.8603C96.3028 73.6777 96.3566 73.5258 96.3964 73.3986C96.4081 73.3801 96.4151 73.3596 96.4245 73.3411C96.4245 73.3411 96.4245 73.3411 96.4268 73.3391L96.4479 73.2734C99.3581 65.3974 107.721 60.3676 116.702 60.3676ZM131.77 94.1865C133.377 94.1865 134.875 93.2836 135.389 91.8738L136.718 88.2395C137.361 86.4706 137.89 85.0197 137.904 84.9869C141.64 74.7427 135.169 63.7393 123.479 60.4559C111.792 57.1704 99.2411 62.8343 95.5028 73.0846C95.5004 73.0908 95.5004 73.0969 95.4981 73.1031C95.4092 73.3411 95.1238 74.1271 94.2793 76.4501C93.6406 78.1985 94.7448 80.0762 96.7356 80.6364C97.7018 80.9093 98.7311 80.8334 99.6318 80.4271C100.535 80.0187 101.204 79.3271 101.51 78.4796L102.549 75.6251C102.614 75.4425 102.673 75.2906 102.713 75.1634C102.722 75.1429 102.734 75.1244 102.738 75.1039C102.738 75.1039 102.738 75.1039 102.738 75.1018L102.757 75.0505C105.244 68.3442 113.486 64.6463 121.166 66.8031C128.867 68.966 133.129 76.2161 130.668 82.9635C130.664 82.9799 129.807 85.3234 128.942 87.6977L128.158 89.8401C127.849 90.6856 127.934 91.5886 128.399 92.3807C128.862 93.1707 129.651 93.7556 130.617 94.0285C131 94.1352 131.391 94.1865 131.77 94.1865Z" fill="#4F1894"/>
<path d="M138.891 164.112C138.863 166.191 140.763 167.899 143.133 167.921C145.502 167.946 147.444 166.277 147.474 164.199C147.502 162.118 145.601 160.413 143.231 160.388C140.861 160.363 138.917 162.03 138.891 164.112Z" fill="#4F1894"/>
<path d="M125.596 166.212C125.571 168.293 127.47 169.998 129.84 170.023C132.212 170.045 134.154 168.379 134.182 166.3C134.208 164.217 132.308 162.512 129.938 162.487C127.569 162.465 125.625 164.133 125.596 166.212Z" fill="#4F1894"/>
<path d="M112.307 168.313C112.278 170.394 114.18 172.099 116.548 172.124C118.918 172.149 120.864 170.482 120.89 168.399C120.918 166.321 119.018 164.613 116.646 164.591C114.276 164.566 112.335 166.234 112.307 168.313Z" fill="#4F1894"/>
<path d="M99.0165 170.417C98.9861 172.495 100.888 174.203 103.258 174.225C105.628 174.25 107.574 172.582 107.597 170.503C107.628 168.422 105.726 166.717 103.356 166.69C100.986 166.667 99.0399 168.334 99.0165 170.417Z" fill="#4F1894"/>
<path d="M85.7241 172.518C85.6961 174.599 87.5956 176.302 89.9654 176.329C92.3376 176.351 94.2793 174.683 94.3073 172.602C94.3354 170.521 92.4335 168.818 90.0637 168.793C87.6962 168.769 85.7499 170.437 85.7241 172.518Z" fill="#4F1894"/>
<path d="M322.207 105.972L345.318 85.3973C347.685 83.2898 351.421 82.9409 354.243 84.5662L376.404 97.3325L376.401 129.637C376.399 130.891 375.379 131.962 373.975 132.184L323.269 140.248C322.778 140.328 322.324 139.998 322.324 139.559L322.268 139.567L322.207 105.972Z" fill="white"/>
<path d="M322.298 106.259C322.422 106.259 322.549 106.22 322.642 106.134L345.662 85.6969C347.861 83.7413 351.358 83.415 353.978 84.9233L376.139 97.6875C376.362 97.8167 376.661 97.7634 376.808 97.5684C376.953 97.3714 376.893 97.1088 376.668 96.9795L354.507 84.2132C351.506 82.4854 347.496 82.8588 344.974 85.1039L321.957 105.539C321.767 105.705 321.77 105.972 321.959 106.138C322.053 106.22 322.177 106.259 322.298 106.259Z" fill="#4F1894"/>
<path d="M343.554 137.377C343.582 137.377 343.61 137.375 343.638 137.369L373.765 132.643C375.573 132.362 376.883 130.987 376.881 129.376L376.867 97.4371C376.867 97.2688 376.752 97.1129 376.572 97.0472C376.263 96.9323 376.263 96.9323 373.8 99.1116C372.41 100.339 370.48 102.052 368.302 103.987C363.946 107.852 358.608 112.594 354.661 116.101C351.583 118.839 346.682 119.296 343.014 117.191C339.561 115.21 334.749 112.516 329.81 109.797C322.413 105.728 322.411 105.726 322.093 105.875C321.936 105.949 321.835 106.093 321.835 106.249L321.781 123.314C321.781 123.548 321.997 123.739 322.263 123.741C322.263 123.741 322.263 123.741 322.266 123.741C322.53 123.741 322.748 123.55 322.748 123.316L322.799 106.981C325.489 108.408 335.509 113.895 342.485 117.899C346.537 120.226 351.948 119.719 355.349 116.698C366.354 106.916 373.582 100.501 375.903 98.457L375.917 129.376C375.917 130.577 374.942 131.599 373.596 131.81L343.47 136.536C343.206 136.577 343.03 136.797 343.079 137.027C343.121 137.234 343.322 137.377 343.554 137.377Z" fill="#4F1894"/>
<path d="M370.733 127.488C370.878 127.488 371.023 127.433 371.119 127.322C371.28 127.135 371.238 126.869 371.025 126.727L360.016 119.364C359.803 119.222 359.502 119.261 359.34 119.446C359.179 119.631 359.221 119.898 359.431 120.041L370.443 127.404C370.529 127.46 370.632 127.488 370.733 127.488Z" fill="#4F1894"/>
<path d="M332.62 130.203C332.753 130.203 332.887 130.154 332.982 130.06L340.099 122.951C340.274 122.773 340.253 122.506 340.054 122.352C339.853 122.198 339.549 122.214 339.374 122.391L332.257 129.499C332.082 129.676 332.101 129.945 332.302 130.099C332.393 130.17 332.508 130.203 332.62 130.203Z" fill="#4F1894"/>
<path d="M333.219 102.615C333.247 102.615 333.275 102.61 333.305 102.608L365.614 97.5274C365.876 97.4843 366.052 97.2668 366.005 97.0349C365.958 96.805 365.71 96.6511 365.446 96.6942L333.134 101.771C332.872 101.814 332.697 102.034 332.744 102.266C332.786 102.469 332.989 102.615 333.219 102.615Z" fill="#4F1894"/>
<path d="M346.888 105.594C346.916 105.594 346.946 105.592 346.974 105.59L365.282 102.711C365.544 102.67 365.717 102.45 365.671 102.219C365.624 101.989 365.376 101.835 365.111 101.876L346.803 104.755C346.541 104.796 346.366 105.016 346.413 105.247C346.455 105.451 346.658 105.594 346.888 105.594Z" fill="#4F1894"/>
<path d="M348.415 110.669C348.441 110.669 348.471 110.667 348.5 110.661L354.888 109.657C355.15 109.616 355.326 109.397 355.279 109.165C355.232 108.935 354.982 108.779 354.718 108.824L348.329 109.828C348.067 109.869 347.891 110.088 347.94 110.32C347.983 110.523 348.186 110.669 348.415 110.669Z" fill="#4F1894"/>
<path d="M313.802 24.8701L343.664 20.1913C349.271 19.3089 354.46 23.0909 354.465 28.0899L354.495 38.1514C354.5 42.0463 351.347 45.3831 346.979 46.0685C345.493 46.3045 344.413 47.4414 344.413 48.765V54.2872C344.413 55.3318 342.974 55.8591 342.129 55.1245L335.191 49.1036C334.47 48.4756 333.448 48.1986 332.449 48.3546L317.037 50.7535C311.425 51.6379 306.126 47.8497 306.126 42.8446V32.781C306.126 28.8882 309.439 25.5576 313.802 24.8701Z" fill="white"/>
<path d="M345.288 20.4847C347.311 20.4847 349.286 21.1065 350.872 22.2701C352.846 23.7189 353.978 25.8387 353.983 28.0899L354.013 38.1493C354.018 41.8452 351.024 44.9993 346.892 45.6498C345.175 45.9228 343.928 47.232 343.928 48.767V54.2852C343.928 54.5991 343.729 54.8618 343.4 54.9808C343.07 55.1019 342.721 55.0424 342.466 54.8228L335.53 48.7998C334.699 48.0775 333.516 47.7553 332.362 47.9338L316.953 50.3348C314.38 50.7391 311.745 50.1214 309.722 48.6377C307.743 47.1828 306.608 45.0711 306.608 42.8446V32.779C306.608 29.159 309.736 25.9372 313.886 25.2867L343.748 20.6058C344.261 20.5258 344.775 20.4847 345.288 20.4847ZM343.058 55.8899C343.297 55.8899 343.54 55.8468 343.772 55.7627C344.464 55.5103 344.892 54.9439 344.892 54.2852V48.767C344.892 47.6424 345.807 46.6841 347.063 46.483C351.655 45.7607 354.984 42.2577 354.977 38.1452L354.949 28.0899C354.944 25.5883 353.684 23.2284 351.489 21.6195C349.286 20.0025 346.403 19.3273 343.577 19.7726L313.718 24.4535C309.114 25.1738 305.642 28.7548 305.642 32.779V42.8446C305.642 45.3236 306.903 47.6712 309.104 49.2862C311.345 50.932 314.267 51.6195 317.124 51.1721L332.531 48.7691C333.375 48.6377 334.243 48.8737 334.852 49.4032L341.788 55.4241C342.141 55.7298 342.593 55.8899 343.058 55.8899Z" fill="#4F1894"/>
<path d="M301.158 16.7765L330.634 12.1429C336.213 11.2666 341.339 15.0261 341.346 19.9984L341.36 30.2466C341.364 34.1231 338.202 37.4434 333.853 38.1227L316.651 40.8027C316.027 40.8992 315.449 41.1639 314.997 41.5579L304.809 50.4395C304.187 50.9792 303.13 50.5934 303.13 49.8218V45.3338C303.13 44.0451 302.103 42.9493 300.671 42.6579C296.755 41.8616 293.65 38.7486 293.629 34.9029L293.615 24.6813C293.594 20.7966 296.802 17.4619 301.158 16.7765Z" fill="white"/>
<path d="M332.248 12.4404C334.253 12.4404 336.204 13.054 337.771 14.2032C339.732 15.6438 340.859 17.7575 340.864 20.0025L340.878 30.2487C340.883 33.9261 337.893 37.0617 333.768 37.7082L316.567 40.3862C315.842 40.5011 315.18 40.8028 314.656 41.2583L304.47 50.1378C304.25 50.3307 303.995 50.261 303.923 50.2343C303.85 50.2056 303.614 50.0988 303.614 49.8239V45.3338C303.614 43.8543 302.449 42.586 300.781 42.2454C296.937 41.4635 294.132 38.3751 294.114 34.9009L294.1 24.6834C294.079 20.9978 297.085 17.8498 301.244 17.1931L330.72 12.5615C331.23 12.4794 331.74 12.4404 332.248 12.4404ZM304.124 51.1188C304.5 51.1188 304.868 50.9895 305.151 50.7391L315.336 41.8596C315.72 41.523 316.204 41.3035 316.735 41.2214L333.939 38.5413C338.524 37.8231 341.849 34.3365 341.844 30.2487L341.828 20.0025C341.825 17.505 340.571 15.1554 338.389 13.5547C336.206 11.952 333.35 11.2871 330.549 11.7263L301.073 16.36C296.448 17.0864 293.11 20.5873 293.133 24.6854L293.147 34.9029C293.169 38.767 296.287 42.2023 300.563 43.0724C301.791 43.3207 302.648 44.2524 302.648 45.3338V49.8239C302.648 50.3554 302.994 50.8109 303.551 51.0161C303.74 51.0839 303.934 51.1188 304.124 51.1188Z" fill="#4F1894"/>
<path d="M302.542 25.1143C302.57 25.1143 302.599 25.1123 302.627 25.1102L333.499 20.2549C333.761 20.2138 333.937 19.9943 333.89 19.7644C333.843 19.5346 333.593 19.3807 333.329 19.4217L302.458 24.275C302.194 24.3181 302.021 24.5356 302.068 24.7675C302.11 24.9727 302.313 25.1143 302.542 25.1143Z" fill="#4F1894"/>
<path d="M312.791 28.8594C312.819 28.8594 312.847 28.8574 312.878 28.8533L333.24 25.652C333.502 25.6089 333.677 25.3893 333.628 25.1595C333.584 24.9296 333.333 24.7757 333.069 24.8188L312.707 28.0181C312.445 28.0591 312.27 28.2807 312.316 28.5106C312.358 28.7158 312.562 28.8594 312.791 28.8594Z" fill="#4F1894"/>
<path d="M302.367 35.7402C302.397 35.7402 302.425 35.7381 302.454 35.734L333.326 30.8808C333.588 30.8377 333.764 30.6181 333.717 30.3883C333.668 30.1564 333.418 30.0025 333.156 30.0455L302.283 34.8988C302.021 34.9419 301.848 35.1594 301.894 35.3913C301.934 35.5965 302.14 35.7402 302.367 35.7402Z" fill="#4F1894"/>
<path d="M179.594 87.7449L229.551 79.8915C239.003 78.4037 247.691 84.7776 247.703 93.2056L247.726 147.014C247.735 153.581 242.374 159.208 235.007 160.361L182.951 168.362C174.466 169.549 166.889 162.738 166.844 154.903L166.816 101.141C166.781 94.558 172.213 88.9064 179.594 87.7449Z" fill="white"/>
<path d="M232.286 80.1029C235.758 80.1029 239.145 81.1638 241.859 83.1544C245.26 85.6518 247.216 89.3169 247.221 93.2077L247.244 147.012C247.254 153.386 242.07 158.826 234.92 159.945L182.869 167.944C179.332 168.44 175.762 167.507 172.824 165.315C169.406 162.768 167.35 158.873 167.329 154.901L167.301 101.143C167.266 94.7529 172.471 89.2943 179.681 88.1615L229.636 80.3081C230.518 80.1685 231.407 80.1029 232.286 80.1029ZM181.012 168.923C181.683 168.923 182.355 168.875 183.028 168.779L235.089 160.78C242.701 159.588 248.22 153.796 248.21 147.012L248.185 93.2077C248.18 89.0645 246.098 85.1634 242.477 82.5059C238.855 79.8484 234.113 78.7444 229.467 79.4749L179.512 87.3263C171.839 88.533 166.297 94.3446 166.334 101.145L166.365 154.903C166.388 159.124 168.571 163.257 172.199 165.961C174.798 167.901 177.87 168.923 181.012 168.923Z" fill="#4F1894"/>
<path d="M186.977 134.796C187.241 134.796 187.457 134.607 187.457 134.373V119.879C187.457 119.647 187.241 119.456 186.977 119.456C186.71 119.456 186.493 119.647 186.493 119.879V134.373C186.493 134.607 186.71 134.796 186.977 134.796Z" fill="#4F1894"/>
<path d="M186.977 117.404C187.241 117.404 187.457 117.215 187.457 116.979V113.887C187.457 107.954 191.445 102.561 197.614 100.148C197.858 100.056 197.968 99.8032 197.86 99.5898C197.75 99.3764 197.462 99.2799 197.221 99.3743C190.704 101.923 186.493 107.62 186.493 113.887V116.979C186.493 117.215 186.71 117.404 186.977 117.404Z" fill="#4F1894"/>
<path d="M200.929 99.1855C200.964 99.1855 200.997 99.1835 201.03 99.1753C201.039 99.1732 201.084 99.163 201.151 99.1465C203.456 98.574 211.344 96.8749 216.222 99.0214C216.46 99.126 216.75 99.0398 216.87 98.8326C216.989 98.6233 216.891 98.3688 216.652 98.2621C211.463 95.9801 203.276 97.7388 200.887 98.3319L200.815 98.3503C200.562 98.4098 200.403 98.6356 200.464 98.8572C200.515 99.0522 200.714 99.1855 200.929 99.1855Z" fill="#4F1894"/>
<path d="M227.57 113.448C227.834 113.448 228.052 113.259 228.052 113.025C228.052 107.796 225.118 102.9 220.201 99.9304C219.981 99.7991 219.682 99.8463 219.53 100.039C219.378 100.232 219.434 100.497 219.656 100.628C224.309 103.44 227.088 108.073 227.088 113.025C227.088 113.259 227.303 113.448 227.57 113.448Z" fill="#4F1894"/>
<path d="M227.572 133.936C227.837 133.936 228.052 133.745 228.052 133.511V116.686C228.052 116.45 227.837 116.261 227.572 116.261C227.303 116.261 227.088 116.45 227.088 116.686V133.511C227.088 133.745 227.303 133.936 227.572 133.936Z" fill="#4F1894"/>
<path d="M191.721 142.565C191.988 142.565 192.206 142.374 192.206 142.14V116.181C192.206 110.868 196.494 106.179 202.401 105.03C202.66 104.981 202.824 104.753 202.768 104.525C202.709 104.297 202.45 104.154 202.19 104.203C195.846 105.436 191.239 110.474 191.239 116.181V142.14C191.239 142.374 191.455 142.565 191.721 142.565Z" fill="#4F1894"/>
<path d="M222.823 145.303C223.09 145.303 223.305 145.112 223.305 144.878V115.522C223.305 111.989 221.574 108.627 218.549 106.3C215.522 103.969 211.506 102.894 207.526 103.353C207.26 103.382 207.075 103.598 207.11 103.829C207.143 104.059 207.391 104.221 207.65 104.193C211.353 103.766 215.094 104.765 217.913 106.936C220.725 109.105 222.342 112.233 222.342 115.522V144.878C222.342 145.112 222.557 145.303 222.823 145.303Z" fill="#4F1894"/>
<path d="M196.966 149.606C197.235 149.606 197.451 149.417 197.451 149.181V134.546C197.451 134.312 197.235 134.123 196.966 134.123C196.702 134.123 196.487 134.312 196.487 134.546V149.181C196.487 149.417 196.702 149.606 196.966 149.606Z" fill="#4F1894"/>
<path d="M196.966 130.794C197.235 130.794 197.451 130.606 197.451 130.37V118.718C197.451 115.133 200.368 112.058 204.389 111.414L207.11 110.977C209.585 110.579 212.116 111.162 214.051 112.576C215.985 113.992 217.097 116.07 217.097 118.28V121.377C217.097 121.611 217.312 121.8 217.576 121.8C217.843 121.8 218.058 121.611 218.058 121.377V118.28C218.058 115.818 216.823 113.501 214.668 111.925C212.514 110.349 209.695 109.699 206.934 110.142L204.214 110.579C199.736 111.301 196.487 114.724 196.487 118.718V130.37C196.487 130.606 196.702 130.794 196.966 130.794Z" fill="#4F1894"/>
<path d="M217.576 148.709C217.843 148.709 218.058 148.518 218.058 148.285V125.028C218.058 124.794 217.843 124.605 217.576 124.605C217.312 124.605 217.097 124.794 217.097 125.028V148.285C217.097 148.518 217.312 148.709 217.576 148.709Z" fill="#4F1894"/>
<path d="M202.216 150.862C202.48 150.862 202.698 150.673 202.698 150.437V121.254C202.698 119.598 204.045 118.178 205.9 117.88L207.236 117.665C208.38 117.484 209.55 117.751 210.441 118.404C211.337 119.058 211.847 120.019 211.847 121.041V139.487C211.847 139.723 212.065 139.912 212.331 139.912C212.598 139.912 212.813 139.723 212.813 139.487V121.041C212.813 119.766 212.175 118.568 211.061 117.755C209.947 116.938 208.488 116.602 207.061 116.834L205.727 117.047C203.411 117.421 201.732 119.19 201.732 121.254V150.437C201.732 150.673 201.947 150.862 202.216 150.862Z" fill="#4F1894"/>
<path d="M212.331 150.053C212.598 150.053 212.813 149.865 212.813 149.631V143.386C212.813 143.152 212.598 142.961 212.331 142.961C212.065 142.961 211.847 143.152 211.847 143.386V149.631C211.847 149.865 212.065 150.053 212.331 150.053Z" fill="#4F1894"/>
<path d="M207.648 150.521C207.915 150.521 208.13 150.333 208.13 150.097V123.403C208.13 123.169 207.915 122.98 207.648 122.98C207.381 122.98 207.164 123.169 207.164 123.403V150.097C207.164 150.333 207.381 150.521 207.648 150.521Z" fill="#4F1894"/>
<path d="M84.7416 315.793C84.7416 315.793 107.111 278.555 94.8243 241.03C94.4149 239.774 88.6788 240.932 88.1875 239.676C87.5606 238.073 92.1528 234.063 91.3878 232.464C88.5454 226.53 84.7159 220.661 79.6768 215.003C79.6768 215.003 70.717 225.898 66.3681 243.277C66.0383 244.588 72.0318 248.506 71.7604 249.889C71.5054 251.194 64.9855 249.963 64.7937 251.33C62.2999 269.011 65.409 291.648 84.7416 315.793Z" fill="white"/>
<path d="M79.6979 215.721C84.2901 220.954 88.0705 226.641 90.941 232.629C91.2357 233.242 90.1994 234.728 89.3712 235.924C88.3302 237.424 87.3477 238.838 87.7267 239.813C88.0846 240.722 89.7549 240.749 91.5235 240.776C92.4077 240.79 94.2512 240.819 94.3565 241.145C100.673 260.431 97.6082 279.639 93.9283 292.358C90.5199 304.122 85.9721 312.653 84.6714 314.968C68.6958 294.763 62.1666 273.373 65.271 251.381C65.3154 251.055 67.4957 251.022 68.3192 251.007C70.317 250.977 72.0411 250.95 72.2329 249.961C72.399 249.115 71.2644 247.997 69.3789 246.253C68.387 245.335 66.7284 243.802 66.8337 243.367C70.6164 228.264 77.9738 217.987 79.6979 215.721ZM84.7393 316.218C84.7486 316.218 84.758 316.218 84.7673 316.216C84.9358 316.205 85.0855 316.119 85.165 315.99C85.2212 315.897 90.8287 306.474 94.8571 292.587C98.572 279.764 101.662 260.388 95.2875 240.911C94.9811 239.981 93.3856 239.957 91.5398 239.928C90.5737 239.914 88.777 239.883 88.6413 239.54C88.4074 238.939 89.3993 237.513 90.1947 236.366C91.2872 234.796 92.3165 233.312 91.8299 232.298C88.8472 226.068 84.882 220.162 80.0558 214.74C79.9669 214.64 79.8242 214.578 79.6769 214.578C79.6722 214.578 79.6698 214.578 79.6652 214.578C79.5131 214.582 79.3727 214.646 79.2838 214.755C79.1926 214.863 70.2141 225.92 65.8932 243.185C65.685 244.018 66.8173 245.114 68.6794 246.835C69.7509 247.829 71.3767 249.333 71.2832 249.815C71.2223 250.115 69.1029 250.148 68.3005 250.16C66.3284 250.191 64.4592 250.221 64.3095 251.278C61.1513 273.698 67.8887 295.485 84.3439 316.037C84.4351 316.15 84.5802 316.218 84.7393 316.218Z" fill="#4F1894"/>
<path d="M235.274 37.6753C241.531 36.52 245.546 31.1681 244.238 25.7238C242.93 20.2816 236.799 16.8073 230.539 17.9668C224.281 19.1221 220.269 24.4741 221.577 29.9183C222.884 35.3605 229.016 38.8348 235.274 37.6753ZM209.716 35.3216L212.322 33.4582C212.743 33.1566 212.937 32.6743 212.804 32.2146C212.666 31.7303 212.549 31.246 212.458 30.7556C212.371 30.2918 211.978 29.9163 211.459 29.7849L208.226 28.9805C207.589 28.8204 207.168 28.2992 207.208 27.7246L207.37 25.3811C207.412 24.8065 207.903 24.3304 208.556 24.236L211.885 23.7538C212.423 23.6758 212.865 23.3351 213.014 22.8796C213.171 22.4076 213.351 21.9417 213.552 21.4821C213.744 21.0388 213.625 20.536 213.246 20.1954L210.911 18.0858C210.453 17.6713 210.39 17.0331 210.752 16.5529L212.24 14.5911C212.605 14.1088 213.302 13.9097 213.924 14.1109L217.069 15.139C217.579 15.3031 218.154 15.2026 218.547 14.8722C218.952 14.5336 219.375 14.2073 219.817 13.8933C220.241 13.5917 220.426 13.1074 220.297 12.6436L219.49 9.79935C219.333 9.24118 219.642 8.65838 220.234 8.39981L222.648 7.34297C223.238 7.0844 223.958 7.21574 224.377 7.66105L226.506 9.92248C226.852 10.2878 227.406 10.454 227.933 10.337C228.489 10.2159 229.049 10.1133 229.608 10.0333C230.143 9.95532 230.576 9.61056 230.728 9.15704L231.666 6.34359C231.851 5.78746 232.45 5.41808 233.112 5.45092L235.802 5.5843C236.462 5.61714 237.007 6.04398 237.115 6.61036L237.657 9.5059C237.744 9.97173 238.128 10.3575 238.649 10.4868C239.197 10.6223 239.737 10.7762 240.268 10.9526C240.776 11.1189 241.347 11.0081 241.74 10.6797L244.173 8.63991C244.648 8.23769 245.382 8.17818 245.934 8.49626L248.182 9.78089C248.734 10.099 248.961 10.7064 248.727 11.2461L247.537 13.9877C247.34 14.431 247.457 14.9317 247.834 15.2744C248.222 15.6233 248.596 15.9947 248.954 16.3764C249.298 16.7437 249.86 16.9038 250.388 16.7889L253.659 16.0788C254.302 15.9372 254.969 16.2061 255.266 16.7191L256.471 18.8143C256.765 19.3294 256.611 19.9532 256.099 20.3206L253.49 22.1839C253.069 22.4835 252.877 22.9678 253.011 23.4275C253.149 23.9118 253.263 24.3981 253.355 24.8865C253.444 25.3503 253.837 25.7279 254.358 25.8551L257.587 26.6616C258.223 26.8217 258.646 27.3429 258.607 27.9175L258.445 30.259C258.403 30.8356 257.912 31.3117 257.257 31.4061L253.93 31.8884C253.394 31.9663 252.952 32.3008 252.8 32.7564C252.644 33.2325 252.463 33.7045 252.26 34.1662C252.068 34.6095 252.192 35.1081 252.566 35.4467L254.901 37.5563C255.36 37.9708 255.427 38.607 255.06 39.0892L253.575 41.0531C253.21 41.5333 252.51 41.7324 251.89 41.5313L248.746 40.5032C248.236 40.3369 247.661 40.4395 247.268 40.7699C246.861 41.1085 246.437 41.4348 245.995 41.7488C245.572 42.0504 245.389 42.5368 245.518 42.9965L246.32 45.8428C246.482 46.4009 246.173 46.9817 245.581 47.2423L243.167 48.2991C242.575 48.5577 241.857 48.4264 241.438 47.9811L239.309 45.7196C238.963 45.3523 238.406 45.1881 237.882 45.3051C237.325 45.4262 236.764 45.5288 236.202 45.6088C235.669 45.6868 235.236 46.0316 235.084 46.4851L234.148 49.2985C233.964 49.8547 233.365 50.224 232.703 50.1933L230.012 50.0578C229.35 50.025 228.805 49.6002 228.7 49.0318L228.157 46.1362C228.068 45.6663 227.682 45.2846 227.156 45.1533C226.616 45.0199 226.082 44.866 225.554 44.6915C225.046 44.5253 224.468 44.632 224.075 44.9624L221.642 47.0022C221.165 47.4024 220.433 47.4639 219.881 47.1459L217.632 45.8592C217.078 45.5432 216.853 44.9337 217.087 44.396L218.28 41.6544C218.472 41.2111 218.355 40.7104 217.981 40.3677C217.593 40.0147 217.216 39.6474 216.858 39.2657C216.514 38.8984 215.955 38.7383 215.424 38.8533L212.154 39.5633C211.513 39.7049 210.846 39.4381 210.549 38.923L209.344 36.8278C209.047 36.3127 209.204 35.6868 209.716 35.3216Z" fill="white"/>
<path d="M235.175 37.2628C232.275 37.7984 229.311 37.3223 226.831 35.9166C224.353 34.513 222.653 32.3521 222.049 29.83C221.441 27.31 222.002 24.7305 223.623 22.5696C225.247 20.4026 227.741 18.9169 230.639 18.3813C236.628 17.2711 242.516 20.6078 243.763 25.812C245.015 31.0182 241.162 36.1547 235.175 37.2628ZM232.841 38.3258C233.68 38.3258 234.532 38.2478 235.374 38.0919C241.882 36.8873 246.07 31.3014 244.711 25.6396C243.351 19.9758 236.949 16.3476 230.44 17.5522C227.289 18.135 224.58 19.75 222.816 22.1018C221.055 24.4535 220.444 27.2608 221.104 30.0045C221.764 32.7502 223.612 35.1019 226.307 36.6287C228.281 37.7471 230.536 38.3258 232.841 38.3258ZM238.214 44.8433C238.064 44.8433 237.912 44.8598 237.763 44.8926C237.222 45.0116 236.673 45.1142 236.125 45.1922C235.416 45.2948 234.827 45.7565 234.621 46.364L233.685 49.1815C233.564 49.5488 233.17 49.7869 232.731 49.7684L230.04 49.6371C229.601 49.6125 229.247 49.3354 229.175 48.9599L228.634 46.0664C228.515 45.4385 227.986 44.9193 227.289 44.7469C226.758 44.6135 226.232 44.4637 225.722 44.2954C225.046 44.0717 224.267 44.2154 223.743 44.6566L221.31 46.6943C220.992 46.9632 220.512 47.0042 220.145 46.7928L217.897 45.5062C217.532 45.2969 217.384 44.9028 217.541 44.5478L218.73 41.8042C218.992 41.209 218.83 40.5277 218.327 40.0742C217.95 39.7315 217.581 39.3703 217.232 38.9969C216.771 38.5064 216.016 38.2909 215.309 38.4428L212.039 39.1528C211.611 39.2472 211.176 39.0728 210.979 38.7321L209.774 36.6369C209.58 36.2983 209.681 35.892 210.02 35.6498L212.628 33.7886C213.195 33.3802 213.447 32.7256 213.274 32.112C213.138 31.64 213.024 31.1598 212.935 30.6878C212.818 30.0681 212.289 29.553 211.59 29.3786L208.359 28.5721C207.94 28.4674 207.664 28.1309 207.69 27.7492L207.854 25.4077C207.879 25.0281 208.2 24.7182 208.635 24.6525L211.962 24.1703C212.682 24.0677 213.279 23.608 213.478 22.9985C213.632 22.5389 213.807 22.0792 214.002 21.6318C214.261 21.0388 214.1 20.3595 213.595 19.9019L211.26 17.7903C210.958 17.5173 210.916 17.1049 211.155 16.7868L212.642 14.825C212.886 14.5048 213.342 14.3755 213.754 14.5089L216.902 15.537C217.579 15.7587 218.358 15.6191 218.882 15.18C219.275 14.8496 219.693 14.5274 220.121 14.2237C220.688 13.8215 220.94 13.1607 220.765 12.543L219.96 9.69876C219.855 9.32938 220.058 8.95179 220.451 8.77941L222.861 7.72257C223.259 7.55019 223.724 7.63433 224.005 7.92984L226.136 10.1933C226.597 10.6879 227.352 10.9034 228.05 10.7494C228.595 10.6304 229.144 10.5299 229.689 10.4519C230.398 10.3472 230.988 9.88756 231.191 9.27602L232.129 6.46257C232.251 6.09319 232.642 5.85309 233.084 5.87361L235.774 6.00905C236.212 6.02752 236.567 6.30661 236.64 6.6801L237.18 9.57563C237.299 10.2056 237.824 10.7228 238.518 10.8931C239.045 11.0244 239.578 11.1783 240.1 11.3507C240.771 11.5682 241.548 11.4266 242.072 10.9854L244.507 8.94563C244.818 8.68296 245.307 8.64602 245.67 8.85124L247.918 10.1379C248.283 10.3472 248.43 10.7392 248.276 11.0942L247.085 13.8358C246.823 14.433 246.985 15.1143 247.487 15.5699C247.866 15.9105 248.234 16.2737 248.582 16.6452C249.041 17.1377 249.796 17.3552 250.505 17.1993L253.776 16.4892C254.204 16.3948 254.639 16.5693 254.835 16.912L256.038 19.0051C256.234 19.3458 256.134 19.75 255.795 19.9942L253.186 21.8555C252.618 22.2618 252.365 22.9185 252.543 23.53C252.676 24.002 252.791 24.4822 252.88 24.9563C252.997 25.5739 253.523 26.089 254.225 26.2635L257.456 27.0699C257.877 27.1746 258.15 27.5111 258.125 27.8908L257.961 30.2343C257.935 30.616 257.615 30.9238 257.177 30.9895L253.853 31.4697C253.132 31.5743 252.538 32.032 252.337 32.6373C252.183 33.1032 252.005 33.5649 251.808 34.0164C251.551 34.6074 251.712 35.2825 252.22 35.7422L254.555 37.8518C254.857 38.1247 254.901 38.5372 254.658 38.8553L253.172 40.8171C252.929 41.1372 252.473 41.2685 252.059 41.1352L248.915 40.107C248.234 39.8854 247.457 40.025 246.935 40.4621C246.54 40.7904 246.124 41.1146 245.693 41.4204C245.127 41.8206 244.874 42.4813 245.05 43.099L245.855 45.9453C245.958 46.3127 245.756 46.6902 245.363 46.8647L242.951 47.9195C242.558 48.0918 242.088 48.0057 241.812 47.7122L239.679 45.4487C239.316 45.0609 238.771 44.8433 238.214 44.8433ZM232.787 50.618C233.631 50.618 234.373 50.1358 234.612 49.4175L235.547 46.6041C235.65 46.3065 235.936 46.0787 236.284 46.0274C236.855 45.9453 237.433 45.8386 237.999 45.7134C238.341 45.6396 238.708 45.7463 238.935 45.9884L241.066 48.2499C241.632 48.8511 242.586 49.0276 243.382 48.6767L245.796 47.6219C246.596 47.271 247.006 46.4973 246.793 45.7401L245.986 42.8959C245.901 42.5942 246.023 42.2741 246.299 42.0791C246.751 41.757 247.188 41.4204 247.6 41.0736C247.859 40.8581 248.241 40.7904 248.578 40.9012L251.722 41.9273C252.559 42.2002 253.486 41.9355 253.977 41.285L255.462 39.3252C255.958 38.6706 255.869 37.823 255.247 37.2628L252.912 35.1512C252.667 34.9275 252.587 34.6033 252.711 34.3201C252.917 33.8481 253.102 33.3597 253.266 32.8733C253.362 32.5799 253.654 32.3583 254.01 32.3069L257.336 31.8226C258.218 31.6975 258.871 31.0634 258.925 30.2856L259.088 27.9441C259.142 27.1643 258.578 26.4687 257.718 26.2553L254.489 25.4508C254.145 25.3626 253.888 25.1143 253.832 24.8167C253.738 24.3201 253.621 23.8194 253.479 23.3248C253.394 23.0314 253.518 22.7112 253.797 22.5122L256.403 20.653C257.098 20.1543 257.301 19.3211 256.901 18.6255L255.696 16.5282C255.296 15.8325 254.412 15.4775 253.544 15.6663L250.274 16.3764C249.923 16.4543 249.553 16.3476 249.329 16.1075C248.961 15.7156 248.578 15.3359 248.18 14.9789C247.937 14.7572 247.862 14.4268 247.986 14.1395L249.179 11.3979C249.495 10.6674 249.195 9.85472 248.447 9.42788L246.196 8.1412C245.452 7.71436 244.484 7.79234 243.838 8.3341L241.407 10.3739C241.148 10.5894 240.766 10.6612 240.439 10.5565C239.892 10.376 239.335 10.2159 238.78 10.0784C238.443 9.99632 238.191 9.74391 238.135 9.43814L237.592 6.54466C237.449 5.77511 236.724 5.20462 235.828 5.16153L233.138 5.02609C232.251 4.97889 231.451 5.47345 231.201 6.22452L230.265 9.03798C230.164 9.33759 229.879 9.56537 229.53 9.61462C228.96 9.69671 228.384 9.80342 227.816 9.92655C227.472 10.0045 227.104 9.89576 226.88 9.65361L224.749 7.39218C224.183 6.79091 223.228 6.61443 222.43 6.96329L220.018 8.02013C219.218 8.36899 218.809 9.14469 219.024 9.90192L219.827 12.7462C219.913 13.0458 219.792 13.37 219.516 13.565C219.066 13.883 218.629 14.2216 218.215 14.5684C217.955 14.786 217.572 14.8516 217.237 14.7429L214.093 13.7148C213.255 13.4418 212.329 13.7045 211.838 14.355L210.352 16.3168C209.856 16.9715 209.945 17.821 210.567 18.3813L212.9 20.4909C213.148 20.7145 213.225 21.0429 213.101 21.3302C212.895 21.8001 212.713 22.2803 212.554 22.7605C212.455 23.0581 212.161 23.2838 211.805 23.3371L208.478 23.8194C207.596 23.9446 206.944 24.5787 206.89 25.3564L206.726 27.6999C206.672 28.4797 207.234 29.1734 208.095 29.3888L211.328 30.1933C211.669 30.2774 211.927 30.5257 211.983 30.8253C212.074 31.3219 212.193 31.8226 212.338 32.3193C212.423 32.6127 212.296 32.9308 212.018 33.1298L209.409 34.9932C208.717 35.4857 208.513 36.3209 208.913 37.0186L210.116 39.1159C210.518 39.8115 211.405 40.1666 212.27 39.9778L215.541 39.2636C215.889 39.1898 216.261 39.2944 216.486 39.5345C216.851 39.9244 217.237 40.3041 217.635 40.6632C217.878 40.8848 217.953 41.2152 217.829 41.5025L216.636 44.2441C216.318 44.9767 216.619 45.7873 217.368 46.2142L219.616 47.5029C220.362 47.9277 221.333 47.8476 221.977 47.3079L224.41 45.2681C224.667 45.0506 225.051 44.9788 225.385 45.0916C225.921 45.264 226.473 45.4241 227.027 45.5636C227.366 45.6478 227.624 45.8981 227.682 46.2039L228.223 49.0994C228.368 49.869 229.091 50.4374 229.984 50.4805L232.677 50.6159C232.714 50.618 232.749 50.618 232.787 50.618Z" fill="#4F1894"/>
<path d="M195.055 22.3665C199.083 20.7145 200.833 16.5364 198.969 13.0355C197.104 9.53255 192.33 8.03245 188.304 9.68646C184.277 11.3384 182.525 15.5145 184.39 19.0174C186.254 22.5163 191.029 24.0164 195.055 22.3665ZM177.339 24.3181L178.766 22.6948C178.998 22.4342 179.04 22.0792 178.869 21.7858C178.686 21.4779 178.52 21.166 178.373 20.8479C178.228 20.5463 177.893 20.3452 177.519 20.3287L175.187 20.2343C174.73 20.2138 174.349 19.9204 174.272 19.5264L173.963 17.9175C173.881 17.5214 174.132 17.1315 174.557 16.9776L176.721 16.1896C177.072 16.0603 177.311 15.771 177.33 15.4406C177.351 15.0999 177.388 14.7593 177.442 14.4207C177.491 14.0924 177.32 13.7702 177.004 13.5937L175.044 12.4897C174.66 12.2721 174.501 11.8494 174.66 11.4739L175.313 9.93887C175.472 9.56128 175.912 9.33144 176.366 9.38275L178.679 9.64131C179.054 9.68236 179.426 9.5346 179.631 9.25552C179.844 8.97027 180.074 8.69118 180.315 8.4162C180.549 8.15558 180.584 7.79851 180.415 7.50506L179.358 5.69304C179.15 5.33597 179.255 4.89887 179.608 4.64235L181.049 3.59372C181.405 3.33515 181.912 3.32489 182.277 3.56909L184.125 4.80447C184.425 5.00147 184.83 5.03636 185.166 4.88655C185.52 4.72649 185.88 4.57874 186.247 4.4474C186.593 4.32017 186.825 4.02466 186.846 3.69838L186.972 1.66473C186.996 1.26251 187.337 0.93007 187.789 0.858246L189.635 0.577106C190.086 0.507334 190.533 0.720754 190.706 1.09014L191.595 2.97398C191.74 3.27769 192.068 3.48291 192.442 3.49932C192.837 3.51574 193.23 3.54652 193.623 3.58756C193.998 3.63066 194.363 3.4788 194.571 3.20177L195.848 1.48414C196.098 1.14759 196.583 1.00395 197.015 1.14144L198.768 1.69961C199.198 1.83711 199.46 2.21675 199.399 2.61691L199.086 4.6362C199.034 4.96454 199.203 5.28672 199.521 5.4632C199.848 5.64994 200.167 5.84489 200.478 6.05421C200.777 6.25737 201.184 6.28815 201.523 6.13424L203.608 5.20053C204.017 5.01789 204.515 5.10408 204.808 5.4119L206.001 6.66164C206.293 6.9674 206.303 7.41476 206.022 7.7349L204.593 9.35607C204.361 9.61669 204.319 9.97171 204.492 10.2631C204.672 10.5709 204.838 10.8869 204.988 11.203C205.131 11.5067 205.463 11.7037 205.84 11.7181L208.17 11.8166C208.628 11.8371 209.012 12.1305 209.087 12.5245L209.4 14.1334C209.475 14.5295 209.227 14.9173 208.801 15.0733L206.637 15.8592C206.289 15.9885 206.05 16.2758 206.029 16.6042C206.006 16.951 205.971 17.2916 205.917 17.6364C205.868 17.9585 206.041 18.2807 206.357 18.4593L208.315 19.5613C208.701 19.7767 208.86 20.1995 208.701 20.575L208.046 22.11C207.886 22.4876 207.449 22.7174 206.993 22.6682L204.679 22.4096C204.307 22.3665 203.933 22.5163 203.729 22.7933C203.514 23.0786 203.287 23.3618 203.044 23.6347C202.812 23.8953 202.773 24.2524 202.946 24.5458L204.003 26.3599C204.209 26.7149 204.106 27.15 203.753 27.4086L202.309 28.4592C201.956 28.7158 201.446 28.7281 201.084 28.4839L199.233 27.2485C198.936 27.0474 198.529 27.0125 198.194 27.1664C197.839 27.3265 197.479 27.4722 197.114 27.6056C196.767 27.7307 196.533 28.0242 196.515 28.3525L196.388 30.3862C196.36 30.7863 196.024 31.1208 195.57 31.1906L193.724 31.4738C193.272 31.5436 192.826 31.3322 192.65 30.9587L191.763 29.0769C191.621 28.7732 191.289 28.566 190.91 28.5516C190.519 28.5352 190.128 28.5064 189.742 28.4613C189.368 28.4202 188.996 28.5721 188.79 28.8471L187.511 30.5688C187.26 30.9033 186.776 31.047 186.345 30.9095L184.593 30.3492C184.161 30.2138 183.899 29.8321 183.962 29.436L184.273 27.4147C184.322 27.0864 184.153 26.7642 183.838 26.5857C183.513 26.401 183.194 26.206 182.883 25.9946C182.584 25.7935 182.174 25.7648 181.838 25.9146L179.753 26.8504C179.344 27.0351 178.841 26.9468 178.551 26.6411L177.355 25.3872C177.065 25.0815 177.056 24.6361 177.339 24.3181Z" fill="white"/>
<mask id="mask1_1_418" style="mask-type:luminance" maskUnits="userSpaceOnUse" x="173" y="0" width="38" height="33">
<path d="M173.339 0.0640869H210.469V32.2105H173.339V0.0640869Z" fill="white"/>
</mask>
<g mask="url(#mask1_1_418)">
<path d="M191.731 9.43609C192.592 9.43609 193.453 9.56743 194.283 9.826C196.176 10.4211 197.687 11.6237 198.534 13.214C200.281 16.4995 198.63 20.4313 194.852 21.9827C193.02 22.7359 190.968 22.82 189.076 22.2249C187.183 21.6318 185.674 20.4272 184.827 18.8389C183.08 15.5514 184.731 11.6195 188.507 10.0702C189.536 9.64746 190.631 9.43609 191.731 9.43609ZM191.63 23.4644C192.868 23.4644 194.103 23.2243 195.261 22.7502C199.521 21.0018 201.381 16.5631 199.406 12.8549C198.452 11.0614 196.746 9.70082 194.608 9.02977C192.475 8.35873 190.161 8.45518 188.098 9.30271C183.838 11.0511 181.978 15.4878 183.952 19.196C184.909 20.9936 186.612 22.3521 188.748 23.0232C189.686 23.3187 190.659 23.4644 191.63 23.4644ZM198.637 26.6493C198.407 26.6493 198.18 26.6944 197.972 26.7888C197.631 26.9427 197.28 27.0864 196.929 27.2136C196.417 27.4003 196.063 27.8374 196.033 28.3299L195.904 30.3636C195.893 30.5647 195.717 30.7391 195.485 30.774L193.642 31.0572C193.41 31.09 193.186 30.9854 193.097 30.7986L192.21 28.9169C191.997 28.4613 191.494 28.1514 190.933 28.1288C190.556 28.1145 190.177 28.0837 189.803 28.0406C189.246 27.9831 188.694 28.2048 188.388 28.6172L187.106 30.3349C186.979 30.5072 186.729 30.5811 186.509 30.5134L184.757 29.9532C184.54 29.8834 184.409 29.6926 184.439 29.4914L184.752 27.4722C184.827 26.9838 184.572 26.4954 184.1 26.2306C183.791 26.0562 183.477 25.8654 183.176 25.6601C182.731 25.3605 182.121 25.3133 181.618 25.537L179.533 26.4728C179.323 26.5692 179.07 26.5261 178.92 26.3681L177.73 25.1184C177.58 24.9624 177.578 24.7408 177.72 24.5766L179.15 22.9534C179.493 22.5614 179.552 22.0279 179.297 21.5928C179.122 21.2953 178.962 20.9895 178.82 20.6858C178.607 20.2364 178.106 19.9306 177.542 19.906L175.212 19.8116C174.978 19.8013 174.787 19.6556 174.749 19.4545L174.438 17.8477C174.396 17.6466 174.525 17.4476 174.742 17.3696L176.906 16.5816C177.425 16.3928 177.783 15.9536 177.814 15.4652C177.835 15.1348 177.868 14.8044 177.919 14.4781C177.996 13.9918 177.739 13.5034 177.264 13.2366L175.304 12.1346C175.109 12.0238 175.03 11.8145 175.112 11.6237L175.762 10.0866C175.846 9.89577 176.069 9.77675 176.305 9.80342L178.619 10.062C179.175 10.1215 179.73 9.89782 180.036 9.48945C180.24 9.21446 180.462 8.94359 180.698 8.67681C181.042 8.28691 181.101 7.7513 180.843 7.31215L179.786 5.50013C179.681 5.31954 179.734 5.09997 179.917 4.96863L181.356 3.91795C181.538 3.79071 181.8 3.78251 181.985 3.90563L183.833 5.13896C184.28 5.43857 184.89 5.48987 185.386 5.26414C185.73 5.11023 186.079 4.96658 186.43 4.8373C186.944 4.65055 187.295 4.2114 187.326 3.72094L187.454 1.68935C187.466 1.48413 187.644 1.31381 187.871 1.27892L189.717 0.993677C189.953 0.958791 190.175 1.0655 190.262 1.2543L191.148 3.13609C191.363 3.59166 191.862 3.90153 192.421 3.92205C192.8 3.93847 193.184 3.96925 193.56 4.01029C194.115 4.07186 194.667 3.84612 194.973 3.43365L196.253 1.71602C196.379 1.5457 196.632 1.47182 196.849 1.53954L198.604 2.10182C198.821 2.16749 198.95 2.35834 198.92 2.55944L198.609 4.57873C198.534 5.06918 198.789 5.55554 199.259 5.82026C199.572 5.99674 199.886 6.19169 200.185 6.3928C200.625 6.69036 201.238 6.73756 201.741 6.51182L203.828 5.57811C204.036 5.48371 204.289 5.52681 204.438 5.68277L205.631 6.93456C205.779 7.09052 205.783 7.31215 205.641 7.47632L204.211 9.09749C203.865 9.48945 203.807 10.0251 204.064 10.4601C204.237 10.7556 204.399 11.0614 204.541 11.3651C204.756 11.8145 205.255 12.1203 205.819 12.1428L208.149 12.2413C208.38 12.2516 208.572 12.3973 208.609 12.5964L208.923 14.2052C208.96 14.4063 208.836 14.6013 208.616 14.6834L206.452 15.4693C205.933 15.6602 205.578 16.0952 205.549 16.5836C205.526 16.914 205.491 17.2506 205.437 17.5789C205.362 18.0632 205.622 18.5496 206.097 18.8143L208.053 19.9183C208.249 20.0291 208.329 20.2384 208.247 20.4293L207.594 21.9622C207.512 22.1531 207.288 22.2783 207.056 22.2495L204.742 21.991C204.186 21.9294 203.629 22.1531 203.325 22.5614C203.119 22.8385 202.897 23.1114 202.663 23.372C202.316 23.764 202.258 24.2975 202.515 24.7387L203.573 26.5508C203.678 26.7334 203.624 26.9509 203.444 27.0843L202.003 28.1309C201.823 28.2622 201.561 28.2704 201.376 28.1473L199.528 26.9099C199.266 26.7375 198.95 26.6493 198.637 26.6493ZM193.551 31.9129C193.635 31.9129 193.722 31.9047 193.808 31.8924L195.652 31.6092C196.332 31.5046 196.833 31.0121 196.868 30.4087L196.997 28.3751C197.006 28.2068 197.125 28.0591 197.298 27.9955C197.675 27.86 198.049 27.7082 198.414 27.5419C198.583 27.466 198.789 27.4824 198.941 27.5871L200.791 28.8204C201.336 29.1857 202.087 29.1693 202.618 28.7855L204.062 27.7348C204.59 27.347 204.745 26.7047 204.431 26.167L203.374 24.3529C203.29 24.2052 203.308 24.0267 203.425 23.8933C203.676 23.6142 203.912 23.3207 204.132 23.0252C204.237 22.8857 204.429 22.8077 204.618 22.8303L206.932 23.0888C207.615 23.1648 208.258 22.8241 208.499 22.2598L209.152 20.7268C209.393 20.1584 209.157 19.5325 208.574 19.2062L206.616 18.1022C206.457 18.0139 206.373 17.8518 206.396 17.6938C206.452 17.3388 206.49 16.9817 206.511 16.6288C206.52 16.4646 206.644 16.3189 206.822 16.2532L208.986 15.4652C209.625 15.2333 209.99 14.6546 209.873 14.0616L209.564 12.4548C209.447 11.8596 208.883 11.4225 208.193 11.3938L205.863 11.2953C205.671 11.2892 205.503 11.1886 205.435 11.0388C205.278 10.7125 205.107 10.3862 204.92 10.0702C204.836 9.92655 204.859 9.74802 204.974 9.61668L206.403 7.99345C206.827 7.51326 206.813 6.85453 206.373 6.3928L205.18 5.13896C204.74 4.67723 204.003 4.55 203.388 4.82293L201.304 5.7587C201.13 5.83668 200.922 5.82026 200.77 5.71971C200.45 5.50423 200.117 5.29902 199.781 5.11023C199.624 5.01993 199.54 4.85782 199.565 4.6957L199.879 2.67436C199.97 2.07309 199.582 1.50876 198.931 1.30355L197.179 0.743319C196.534 0.536055 195.82 0.747423 195.443 1.2543L194.166 2.96987C194.058 3.11352 193.869 3.19355 193.684 3.16892C193.282 3.12378 192.87 3.09299 192.463 3.07658C192.281 3.06837 192.114 2.96576 192.042 2.81185L191.153 0.930062C190.893 0.371885 190.231 0.0579108 189.553 0.160517L187.705 0.443709C187.026 0.546315 186.526 1.03882 186.491 1.64009L186.362 3.67785C186.353 3.84407 186.233 3.99182 186.06 4.05339C185.683 4.19293 185.309 4.34684 184.944 4.50896C184.778 4.58488 184.572 4.56847 184.418 4.46586L182.567 3.23254C182.022 2.86521 181.271 2.87957 180.74 3.26742L179.299 4.31606C178.766 4.70186 178.614 5.34827 178.927 5.88593L179.985 7.7C180.069 7.84775 180.05 8.02629 179.933 8.15762C179.683 8.44081 179.447 8.73222 179.229 9.02567C179.124 9.16727 178.93 9.24525 178.74 9.22267L176.424 8.96411C175.741 8.88613 175.102 9.22678 174.862 9.79316L174.209 11.3261C173.968 11.8945 174.202 12.5204 174.784 12.8488L176.742 13.9508C176.904 14.039 176.988 14.2032 176.962 14.3632C176.908 14.71 176.869 15.0651 176.848 15.4201C176.838 15.5842 176.714 15.734 176.539 15.7977L174.375 16.5857C173.734 16.8196 173.371 17.3942 173.486 17.9893L173.797 19.5961C173.912 20.1933 174.476 20.6283 175.168 20.6571L177.498 20.7535C177.687 20.7617 177.856 20.8623 177.926 21.01C178.078 21.3343 178.251 21.6606 178.438 21.9807C178.523 22.1243 178.502 22.3029 178.385 22.4363L176.958 24.0595C176.532 24.5397 176.548 25.1984 176.988 25.6601L178.181 26.9119C178.621 27.3757 179.358 27.5029 179.973 27.23L182.057 26.2942C182.231 26.2163 182.436 26.2306 182.588 26.3312C182.914 26.5508 183.246 26.756 183.578 26.9427C183.735 27.031 183.821 27.1951 183.796 27.3572L183.482 29.3786C183.389 29.9799 183.777 30.5421 184.427 30.7494L186.182 31.3076C186.827 31.5128 187.541 31.3035 187.915 30.7986L189.195 29.0831C189.3 28.9394 189.492 28.8614 189.681 28.884C190.079 28.9292 190.484 28.9579 190.889 28.9743C191.078 28.9825 191.247 29.0872 191.317 29.239L192.206 31.1229C192.433 31.6092 192.966 31.9109 193.551 31.9129Z" fill="#4F1894"/>
</g>
<path d="M307.642 192.481C298.18 194.783 292.319 196.195 292.319 196.195C292.319 196.195 311.17 255.561 316.628 270.433C321.576 283.917 353.995 313.285 359.745 319.232C360.339 319.844 362.023 320.465 362.023 320.465C365.331 321.165 368.789 320.022 370.766 317.574C370.766 317.574 371.807 315.516 371.563 314.469L369.762 306.757C362.929 282.286 349.856 270.176 344.319 244.629C335.958 206.074 329.71 197.367 328.315 194.437C323.988 185.366 307.642 192.481 307.642 192.481Z" fill="#4F1894"/>
<path d="M276.262 193.579C274.587 207.498 275.576 231.52 277.116 242.372C281.35 272.241 309.483 314.262 314.672 322.795C315.336 323.886 316.56 324.629 317.952 324.769C321.938 325.167 323.419 324.297 325.457 323.379C326.921 322.721 327.777 321.375 327.812 319.92C328.512 290.658 321.41 265.602 314.043 249.639C311.2 243.484 308.091 208.457 308.477 195.832L276.262 193.579Z" fill="#4F1894"/>
<path d="M353.178 205.091C353.419 205.695 352.811 206.881 352.898 207.375C353.213 209.177 356.264 211.707 358.51 213.351C360.295 214.658 361.347 216.602 361.357 218.654C361.357 219.138 361.329 219.663 361.296 220.232C361.221 221.531 361.696 222.22 362.337 222.569C363.596 223.257 365.233 222.454 365.392 221.153C365.741 218.307 366.316 212.411 365.409 210.33C364.812 208.964 362.887 207.174 361.085 205.709C359.314 204.268 358.334 202.224 358.344 200.094C358.379 192.727 353.723 171.217 348.256 156.122L334.59 162.785C334.59 162.785 344.202 182.733 353.178 205.091Z" fill="white"/>
<path d="M347.975 156.741C353.51 172.21 357.894 192.996 357.862 200.092C357.85 202.354 358.905 204.515 360.758 206.021C363.041 207.878 364.494 209.421 364.957 210.482C365.582 211.908 365.565 215.783 364.913 221.108C364.852 221.609 364.506 222.038 363.989 222.259C363.525 222.458 363.015 222.442 362.592 222.21C361.998 221.886 361.724 221.227 361.78 220.252C361.811 219.692 361.841 219.148 361.839 218.654C361.832 216.476 360.73 214.426 358.818 213.025C355.532 210.616 353.599 208.588 353.375 207.312C353.351 207.182 353.443 206.842 353.515 206.567C353.658 206.027 353.819 205.415 353.632 204.95C345.402 184.445 336.527 165.742 335.202 162.972L347.975 156.741ZM363.333 223.244C363.698 223.244 364.068 223.17 364.412 223.023C365.231 222.672 365.776 221.99 365.872 221.198C366.265 217.993 366.786 212.298 365.86 210.178C365.336 208.98 363.841 207.371 361.413 205.397C359.759 204.053 358.816 202.12 358.826 200.096C358.861 192.863 354.36 171.578 348.717 155.992C348.673 155.871 348.57 155.773 348.436 155.725C348.301 155.68 348.149 155.689 348.022 155.75L334.356 162.413C334.14 162.52 334.049 162.752 334.145 162.951C334.241 163.15 343.856 183.142 352.722 205.231C352.816 205.463 352.675 205.99 352.575 206.376C352.465 206.792 352.369 207.15 352.42 207.439C352.752 209.339 355.747 211.88 358.201 213.677C359.892 214.917 360.865 216.729 360.872 218.656C360.875 219.13 360.847 219.661 360.814 220.209C360.739 221.514 361.167 222.43 362.082 222.93C362.463 223.138 362.896 223.244 363.333 223.244Z" fill="#4F1894"/>
<path d="M269.047 139.341L250.225 158.328C248.889 159.672 246.577 159.842 245.008 158.707C239.62 154.81 228.326 146.585 227.549 145.588C226.527 144.279 221.527 137.56 218.741 135.405C216.119 133.384 213.999 131.096 212.766 129.664C212.025 128.798 211.045 128.619 210.352 129.003C209.744 129.341 209.533 129.955 210.617 131.252C211.868 132.752 213.08 134.283 214.135 135.572C214.467 135.978 214.886 136.323 214.369 136.14C213.164 135.721 211.707 135.414 210.986 136.013C209.636 137.142 210.291 142.557 213.896 145.66C217.499 148.765 220.047 147.283 221.408 148.873C222.77 150.464 235.732 172.869 240.514 175.368C251.467 181.088 271.948 163.113 271.948 163.113L269.047 139.341Z" fill="white"/>
<path d="M271.443 162.953C269.494 164.617 250.763 180.226 240.762 175.001C237.295 173.193 229.135 160.172 224.749 153.177C223.188 150.687 222.157 149.044 221.794 148.619C221.104 147.812 220.145 147.665 219.13 147.507C217.826 147.306 216.203 147.055 214.236 145.358C211.861 143.316 210.801 140.154 210.818 138.079C210.827 137.234 211.014 136.575 211.318 136.321C211.742 135.968 212.787 136.046 214.191 136.536C214.327 136.583 214.743 136.727 214.994 136.431C215.249 136.132 214.996 135.851 214.75 135.578C214.68 135.5 214.6 135.414 214.528 135.323C214.14 134.849 213.73 134.342 213.304 133.819C212.575 132.912 211.798 131.952 211.007 131.002C210.345 130.211 210.305 129.822 210.34 129.659C210.359 129.579 210.404 129.475 210.61 129.362C211.134 129.073 211.845 129.294 212.383 129.918C213.712 131.467 215.84 133.733 218.421 135.723C220.844 137.597 225.067 143.109 226.658 145.184C226.866 145.459 227.034 145.678 227.151 145.828C227.902 146.788 237.108 153.542 244.699 159.036C246.486 160.324 249.069 160.135 250.587 158.605L268.685 140.355L271.443 162.953ZM245.508 176.92C256.747 176.92 271.562 164.049 272.29 163.411C272.393 163.32 272.442 163.193 272.428 163.068L269.527 139.298C269.506 139.13 269.375 138.99 269.192 138.939C269.007 138.888 268.809 138.937 268.682 139.066L249.86 158.048C248.688 159.23 246.69 159.378 245.314 158.379C234.96 150.889 228.468 146.015 227.949 145.35C227.832 145.2 227.666 144.983 227.458 144.71C225.848 142.612 221.574 137.033 219.057 135.087C216.542 133.144 214.455 130.926 213.152 129.407C212.308 128.426 211.052 128.112 210.093 128.646C209.704 128.859 209.47 129.148 209.393 129.499C209.278 130.035 209.55 130.692 210.226 131.502C211.017 132.45 211.789 133.407 212.518 134.307C212.827 134.689 213.127 135.059 213.414 135.416C212.158 135.128 211.232 135.225 210.656 135.707C210.006 136.249 209.863 137.293 209.854 138.073C209.835 140.396 210.97 143.733 213.557 145.964C215.74 147.843 217.602 148.131 218.963 148.342C219.925 148.49 220.561 148.586 221.024 149.128C221.345 149.505 222.475 151.305 223.902 153.585C230.033 163.365 236.862 173.952 240.268 175.729C241.859 176.563 243.635 176.92 245.508 176.92Z" fill="#4F1894"/>
<path d="M323.646 126.341C309.226 122.272 284.553 124.32 277.069 129.179C267.346 135.487 258.162 145.691 254.562 149.916C253.558 151.09 253.404 152.664 254.157 153.975C257.395 159.618 264.586 173.554 268.673 170.928C272.743 168.313 277.913 163.386 277.621 165.966C276.844 172.813 275.518 195.682 275.518 195.682C275.518 195.682 279.797 196.977 279.984 200.051L280.421 208.379C280.527 209.349 281.703 209.918 282.681 209.473C290.546 205.881 321.69 202.442 333.303 196.862C334.695 196.193 335.446 194.818 335.177 193.437C333.813 186.487 325.939 171.806 329.125 162.969C329.452 162.056 331.937 165.83 334.938 168.075C335.42 168.438 336.12 168.457 336.613 168.11L350.357 158.494C351.573 157.642 352.011 156.185 351.431 154.911C348.579 148.646 339.207 130.729 323.646 126.341Z" fill="white"/>
<path d="M329.305 162.405C329.26 162.405 329.216 162.409 329.174 162.415C329.059 162.436 328.781 162.514 328.664 162.842C326.374 169.196 329.635 178.366 332.257 185.736C333.354 188.82 334.304 191.486 334.7 193.509C334.936 194.71 334.281 195.908 333.071 196.489C326.636 199.583 314.01 202.038 302.87 204.203C293.807 205.967 285.98 207.488 282.457 209.097C282.138 209.243 281.778 209.239 281.465 209.089C281.142 208.937 280.936 208.662 280.901 208.338L280.466 200.033C280.295 197.207 277.092 195.795 276.016 195.399C276.178 192.659 277.382 172.337 278.101 166.009C278.164 165.446 278.005 165.075 277.628 164.903C276.723 164.488 275.225 165.569 272.191 167.853C270.923 168.812 269.611 169.799 268.387 170.585C268.027 170.817 267.632 170.884 267.178 170.786C263.716 170.041 258.497 160.737 255.692 155.736C255.287 155.017 254.917 154.359 254.59 153.786C253.911 152.606 254.049 151.221 254.948 150.17C258.454 146.056 267.658 135.81 277.357 129.518C284.45 124.915 309.022 122.66 323.499 126.743C339.027 131.123 348.462 149.532 350.984 155.069C351.48 156.16 351.099 157.433 350.055 158.161L336.314 167.78C336 167.999 335.563 167.987 335.252 167.753C333.881 166.729 332.622 165.377 331.609 164.291C330.346 162.937 329.822 162.405 329.305 162.405ZM281.968 210.049C282.288 210.049 282.609 209.983 282.903 209.848C286.312 208.293 294.458 206.708 303.078 205.03C314.281 202.852 326.977 200.384 333.535 197.232C335.107 196.476 335.958 194.923 335.652 193.365C335.245 191.285 334.288 188.596 333.181 185.483C330.643 178.354 327.497 169.512 329.476 163.417C329.817 163.708 330.365 164.295 330.863 164.829C331.899 165.941 333.188 167.322 334.625 168.397C335.284 168.892 336.246 168.908 336.915 168.44L350.656 158.826C352.03 157.866 352.533 156.191 351.88 154.755C348.598 147.546 339.289 130.306 323.793 125.935C308.803 121.705 284.202 124.022 276.781 128.839C266.982 135.196 257.708 145.518 254.173 149.659C253.055 150.971 252.884 152.699 253.727 154.166C254.054 154.736 254.424 155.395 254.824 156.111C258.986 163.528 263.351 170.833 266.949 171.609C267.686 171.767 268.362 171.654 268.958 171.27C270.21 170.464 271.539 169.464 272.821 168.498C274.379 167.322 276.491 165.732 277.141 165.664C277.148 165.711 277.155 165.791 277.139 165.924C276.372 172.703 275.048 195.43 275.034 195.66C275.024 195.848 275.155 196.021 275.359 196.082C275.399 196.095 279.336 197.326 279.502 200.074L279.939 208.399C280.007 209.021 280.403 209.548 281.004 209.836C281.303 209.977 281.635 210.049 281.968 210.049Z" fill="#4F1894"/>
<path d="M306.856 125.291L306.69 111.158L293.4 116.555L293.264 124.86C293.267 127.088 295.365 128.397 295.365 128.397C297.962 130.203 301.71 130.01 304.498 128.441L305.144 128.077C306.222 127.47 306.87 126.415 306.856 125.291Z" fill="white"/>
<path d="M306.374 125.295C306.386 126.282 305.827 127.187 304.882 127.72L304.236 128.085C301.457 129.651 297.934 129.643 295.667 128.065C295.627 128.04 293.749 126.832 293.746 124.86L293.877 116.828L306.215 111.818L306.374 125.295ZM299.768 130.121C301.448 130.121 303.19 129.68 304.758 128.798L305.403 128.434C306.629 127.741 307.355 126.565 307.341 125.284L307.172 111.156C307.172 111.01 307.086 110.878 306.947 110.8C306.809 110.723 306.636 110.714 306.487 110.774L293.197 116.171C293.028 116.239 292.921 116.386 292.918 116.548L292.78 124.855C292.785 127.279 294.993 128.685 295.087 128.744C296.404 129.662 298.051 130.121 299.768 130.121Z" fill="#4F1894"/>
<path d="M288.796 90.5851C292.287 90.5215 289.203 93.9321 301.791 90.9504C306.952 89.7273 304.164 94.95 305.509 94.6565C310.478 93.573 312.216 95.0669 313.325 95.8488C314.607 96.7538 315.828 98.8572 315.449 100.757C314.95 103.267 311.1 103.912 308.768 109.175C307.13 112.871 307.399 115.157 305.658 115.65C303.897 116.146 302.699 114.07 300.727 114.486C298.177 115.024 298.519 118.853 295.997 120.357C294.406 121.307 290.782 121.654 285.107 119.017C284.188 118.588 283.746 117.644 284.059 116.774C284.461 115.656 284.976 114.248 285.598 112.941C288.56 106.702 291.196 105.352 290.331 103.686C289.004 101.129 283.505 102.395 282.69 100.304C281.844 98.1349 284.019 90.6734 288.796 90.5851Z" fill="#4F1894"/>
<path d="M299.578 105.693C299.075 106.444 298.633 107.226 298.254 108.03C297.546 109.536 296.303 112.116 295.482 113.515C294.467 115.25 288.635 113.401 286.829 112.777C286.536 112.676 286.405 112.379 286.539 112.13L287.238 110.626L285.809 110.259C285.638 110.193 285.484 110.095 285.374 109.963C285.102 109.633 285.119 109.206 285.374 108.902C286.703 107.316 289.056 104.708 290.303 101.435C290.429 101.102 290.766 100.86 291.166 100.827C292.539 100.71 295.782 100.702 298.856 102.682C299.939 103.378 300.257 104.675 299.578 105.693Z" fill="white"/>
<path d="M299.162 105.479C298.652 106.243 298.196 107.045 297.81 107.868C297.131 109.305 295.873 111.927 295.054 113.323C294.518 114.236 291.283 113.86 287.004 112.383C287.009 112.375 286.981 112.299 286.986 112.29L287.685 110.788C287.736 110.677 287.732 110.552 287.673 110.443C287.615 110.335 287.505 110.255 287.374 110.22L285.98 109.863C285.886 109.822 285.811 109.77 285.764 109.715C285.626 109.545 285.624 109.319 285.764 109.155L286.136 108.711C287.517 107.082 289.601 104.617 290.759 101.57C290.827 101.394 291.005 101.266 291.213 101.25C292.434 101.147 295.599 101.11 298.572 103.023C299.461 103.596 299.714 104.65 299.162 105.479ZM293.433 114.659C294.586 114.659 295.508 114.4 295.913 113.71C296.748 112.286 298.018 109.641 298.701 108.192C299.071 107.404 299.508 106.637 299.995 105.906C300.8 104.704 300.432 103.169 299.143 102.34C295.903 100.255 292.455 100.294 291.119 100.407C290.532 100.456 290.031 100.809 289.844 101.301C288.733 104.221 286.705 106.618 285.362 108.207L284.985 108.652C284.597 109.116 284.595 109.742 284.983 110.212C285.133 110.394 285.35 110.544 285.61 110.647C285.631 110.655 285.652 110.661 285.673 110.665L286.59 110.901L286.092 111.972C285.982 112.175 285.973 112.436 286.076 112.668C286.178 112.898 286.389 113.08 286.651 113.171C288.56 113.829 291.367 114.659 293.433 114.659Z" fill="#4F1894"/>
<path d="M300.102 111.521C303.616 112.91 305.144 110.037 304.519 108.211C304.255 107.441 303.092 107.277 302.542 107.917L299.929 110.95C299.763 111.143 299.85 111.42 300.102 111.521Z" fill="white"/>
<path d="M324.782 328.317L315.616 330.15C312.586 330.756 309.755 332.106 307.376 334.078L293.094 345.922L293.484 345.931C295.484 345.977 297.478 345.722 299.402 345.177L329.522 336.629C331.682 336.016 332.884 333.714 332.152 331.591L330.541 326.918C329.866 324.962 327.103 324.951 326.414 326.902C326.157 327.628 325.537 328.166 324.782 328.317Z" fill="#4F1894"/>
<path d="M373.282 323.317L364.116 325.15C361.086 325.756 358.255 327.106 355.876 329.078L341.594 340.922L341.984 340.931C343.984 340.977 345.978 340.722 347.902 340.177L378.022 331.629C380.182 331.016 381.384 328.714 380.652 326.591L379.041 321.918C378.366 319.962 375.603 319.951 374.914 321.902C374.657 322.628 374.037 323.166 373.282 323.317Z" fill="#4F1894"/>
</svg>
