<svg width="30" height="30" viewBox="0 0 43 43" fill="none" xmlns="http://www.w3.org/2000/svg">
<path d="M21.5 34.625C23.2236 34.625 24.9303 34.2855 26.5227 33.6259C28.1151 32.9663 29.562 31.9995 30.7808 30.7808C31.9995 29.562 32.9663 28.1151 33.6259 26.5227C34.2855 24.9303 34.625 23.2236 34.625 21.5C34.625 19.7764 34.2855 18.0697 33.6259 16.4773C32.9663 14.8849 31.9995 13.438 30.7808 12.2192C29.562 11.0005 28.1151 10.0337 26.5227 9.37408C24.9303 8.71449 23.2236 8.375 21.5 8.375C18.019 8.375 14.6806 9.75781 12.2192 12.2192C9.75781 14.6806 8.375 18.019 8.375 21.5C8.375 24.981 9.75781 28.3194 12.2192 30.7808C14.6806 33.2422 18.019 34.625 21.5 34.625ZM21.5 42.05C20.4687 42.05 19.625 41.2813 19.625 40.25V40.1C19.625 39.0688 20.4687 38.225 21.5 38.225C22.5313 38.225 23.375 39.0688 23.375 40.1C23.375 41.1313 22.5313 42.05 21.5 42.05ZM34.8875 36.7625C34.4 36.7625 33.9313 36.575 33.5563 36.2188L33.3125 35.975C33.1389 35.8014 33.0012 35.5953 32.9073 35.3685C32.8133 35.1417 32.765 34.8986 32.765 34.6531C32.765 34.4076 32.8133 34.1645 32.9073 33.9377C33.0012 33.7109 33.1389 33.5048 33.3125 33.3312C33.4861 33.1577 33.6922 33.02 33.919 32.926C34.1458 32.8321 34.3889 32.7837 34.6344 32.7837C34.8799 32.7837 35.123 32.8321 35.3498 32.926C35.5766 33.02 35.7827 33.1577 35.9562 33.3312L36.2 33.575C36.4605 33.8357 36.6381 34.1677 36.7103 34.5291C36.7825 34.8905 36.7461 35.2653 36.6058 35.6061C36.4655 35.9469 36.2274 36.2385 35.9217 36.4443C35.6159 36.6501 35.2561 36.7608 34.8875 36.7625ZM8.1125 36.7625C7.625 36.7625 7.15625 36.575 6.78125 36.2188C6.60743 36.0453 6.46953 35.8392 6.37544 35.6124C6.28135 35.3856 6.23292 35.1424 6.23292 34.8969C6.23292 34.6513 6.28135 34.4082 6.37544 34.1813C6.46953 33.9545 6.60743 33.7485 6.78125 33.575L7.025 33.3312C7.19859 33.1577 7.40467 33.02 7.63148 32.926C7.85829 32.8321 8.10138 32.7837 8.34688 32.7837C8.59237 32.7837 8.83546 32.8321 9.06227 32.926C9.28908 33.02 9.49516 33.1577 9.66875 33.3312C9.84234 33.5048 9.98004 33.7109 10.074 33.9377C10.1679 34.1645 10.2163 34.4076 10.2163 34.6531C10.2163 34.8986 10.1679 35.1417 10.074 35.3685C9.98004 35.5953 9.84234 35.8014 9.66875 35.975L9.425 36.2188C9.06875 36.575 8.58125 36.7625 8.1125 36.7625ZM40.25 23.375H40.1C39.0688 23.375 38.225 22.5313 38.225 21.5C38.225 20.4687 39.0688 19.625 40.1 19.625C41.1313 19.625 42.05 20.4687 42.05 21.5C42.05 22.5313 41.2813 23.375 40.25 23.375ZM2.9 23.375H2.75C1.71875 23.375 0.875 22.5313 0.875 21.5C0.875 20.4687 1.71875 19.625 2.75 19.625C3.78125 19.625 4.7 20.4687 4.7 21.5C4.7 22.5313 3.93125 23.375 2.9 23.375ZM34.6438 10.2312C34.1563 10.2312 33.6875 10.0437 33.3125 9.6875C33.1387 9.51404 33.0008 9.308 32.9067 9.08117C32.8126 8.85435 32.7642 8.61119 32.7642 8.36562C32.7642 8.12006 32.8126 7.8769 32.9067 7.65008C33.0008 7.42325 33.1387 7.21721 33.3125 7.04375L33.5563 6.8C33.7298 6.62641 33.9359 6.48871 34.1627 6.39476C34.3895 6.30082 34.6326 6.25246 34.8781 6.25246C35.1236 6.25246 35.3667 6.30082 35.5935 6.39476C35.8203 6.48871 36.0264 6.62641 36.2 6.8C36.3736 6.97359 36.5113 7.17967 36.6052 7.40648C36.6992 7.63329 36.7475 7.87638 36.7475 8.12187C36.7475 8.36737 36.6992 8.61046 36.6052 8.83727C36.5113 9.06408 36.3736 9.27016 36.2 9.44375L35.9562 9.6875C35.6 10.0437 35.1313 10.2312 34.6438 10.2312ZM8.35625 10.2312C7.86875 10.2312 7.4 10.0437 7.025 9.6875L6.78125 9.425C6.60766 9.25141 6.46996 9.04533 6.37601 8.81852C6.28207 8.59171 6.23371 8.34862 6.23371 8.10313C6.23371 7.85763 6.28207 7.61454 6.37601 7.38773C6.46996 7.16092 6.60766 6.95484 6.78125 6.78125C6.95484 6.60766 7.16092 6.46996 7.38773 6.37601C7.61454 6.28207 7.85763 6.23371 8.10313 6.23371C8.34862 6.23371 8.59171 6.28207 8.81852 6.37601C9.04533 6.46996 9.25141 6.60766 9.425 6.78125L9.66875 7.025C10.4 7.75625 10.4 8.9375 9.66875 9.66875C9.3125 10.0438 8.825 10.2312 8.35625 10.2312ZM21.5 4.7C20.4687 4.7 19.625 3.93125 19.625 2.9V2.75C19.625 1.71875 20.4687 0.875 21.5 0.875C22.5313 0.875 23.375 1.71875 23.375 2.75C23.375 3.78125 22.5313 4.7 21.5 4.7Z" fill="#4F1894"/>
</svg>
